<svg width="29" height="27" viewBox="0 0 29 27" fill="none" xmlns="http://www.w3.org/2000/svg">
<path fill-rule="evenodd" clip-rule="evenodd" d="M15.9065 0.973736C15.4091 0.586831 14.797 0.37677 14.1668 0.37677C13.5367 0.37677 12.9245 0.586831 12.4271 0.973736L0.549814 10.2104C-0.51552 11.042 0.0709803 12.7491 1.42106 12.7491H2.83348V24.0824C2.83348 24.8338 3.13199 25.5545 3.66334 26.0859C4.1947 26.6172 4.91537 26.9157 5.66681 26.9157H12.7501V16.9991C12.7501 16.6233 12.8994 16.263 13.1651 15.9973C13.4308 15.7317 13.7911 15.5824 14.1668 15.5824C14.5425 15.5824 14.9029 15.7317 15.1685 15.9973C15.4342 16.263 15.5835 16.6233 15.5835 16.9991V26.9157H22.6668C23.4183 26.9157 24.1389 26.6172 24.6703 26.0859C25.2016 25.5545 25.5001 24.8338 25.5001 24.0824V12.7491H26.9126C28.2612 12.7491 28.8506 11.042 27.7838 10.2118L15.9065 0.973736Z" fill="#B3CBFB"/>
</svg>
