<svg width="30" height="29" viewBox="0 0 30 29" fill="none" xmlns="http://www.w3.org/2000/svg">
<path fill-rule="evenodd" clip-rule="evenodd" d="M14.8339 0C6.82597 0 0.333923 6.49205 0.333923 14.5C0.333923 22.508 6.82597 29 14.8339 29C22.8419 29 29.3339 22.508 29.3339 14.5C29.3339 6.49205 22.8419 0 14.8339 0ZM2.97029 14.5C2.97029 17.255 3.91015 19.7912 5.48538 21.8054C6.59164 20.3526 8.01879 19.1753 9.65536 18.3653C11.2919 17.5554 13.0936 17.1348 14.9196 17.1364C16.722 17.1347 18.501 17.5444 20.1211 18.3343C21.7411 19.1242 23.1595 20.2735 24.2681 21.6946C25.4103 20.1967 26.1793 18.4482 26.5116 16.594C26.8438 14.7399 26.7298 12.8332 26.1788 11.0318C25.6279 9.23048 24.656 7.5862 23.3434 6.23505C22.0309 4.8839 20.4154 3.86472 18.6308 3.26185C16.8461 2.65898 14.9436 2.48974 13.0806 2.76815C11.2175 3.04655 9.44756 3.76458 7.91712 4.86284C6.38668 5.9611 5.13976 7.40801 4.27954 9.08385C3.41932 10.7597 2.97053 12.6163 2.97029 14.5ZM14.8339 26.3636C12.1105 26.3677 9.46927 25.4308 7.3572 23.7115C8.20733 22.4944 9.33887 21.5008 10.6555 20.815C11.9722 20.1292 13.4351 19.7717 14.9196 19.7727C16.3856 19.7716 17.8308 20.1202 19.1351 20.7896C20.4393 21.459 21.565 22.43 22.4187 23.6218C20.2903 25.397 17.6055 26.3675 14.8339 26.3636Z" fill="#B3CBFB"/>
<path d="M2.97029 14.5C2.97029 17.255 3.91015 19.7912 5.48538 21.8054C6.59164 20.3526 8.01879 19.1753 9.65536 18.3653C11.2919 17.5554 13.0936 17.1348 14.9196 17.1364C16.722 17.1347 18.501 17.5444 20.1211 18.3343C21.7411 19.1242 23.1595 20.2735 24.2681 21.6946C25.4103 20.1967 26.1793 18.4482 26.5116 16.594C26.8438 14.7399 26.7298 12.8332 26.1788 11.0318C25.6279 9.23048 24.656 7.5862 23.3434 6.23505C22.0309 4.8839 20.4154 3.86472 18.6308 3.26185C16.8461 2.65898 14.9436 2.48974 13.0806 2.76815C11.2175 3.04655 9.44756 3.76458 7.91712 4.86284C6.38668 5.9611 5.13976 7.40801 4.27954 9.08385C3.41932 10.7597 2.97053 12.6163 2.97029 14.5Z" fill="#B3CBFB"/>
<path d="M14.8339 26.3636C12.1105 26.3677 9.46927 25.4308 7.3572 23.7115C8.20733 22.4944 9.33887 21.5008 10.6555 20.815C11.9722 20.1292 13.4351 19.7717 14.9196 19.7727C16.3856 19.7716 17.8308 20.1202 19.1351 20.7896C20.4393 21.459 21.565 22.43 22.4187 23.6218C20.2903 25.397 17.6055 26.3675 14.8339 26.3636Z" fill="white"/>
<path fill-rule="evenodd" clip-rule="evenodd" d="M20.1067 10.5454C20.1067 11.9438 19.5512 13.285 18.5623 14.2738C17.5735 15.2626 16.2324 15.8182 14.8339 15.8182C13.4355 15.8182 12.0944 15.2626 11.1056 14.2738C10.1167 13.285 9.56122 11.9438 9.56122 10.5454C9.56122 9.14702 10.1167 7.80588 11.1056 6.81705C12.0944 5.82822 13.4355 5.27271 14.8339 5.27271C16.2324 5.27271 17.5735 5.82822 18.5623 6.81705C19.5512 7.80588 20.1067 9.14702 20.1067 10.5454ZM17.4703 10.5454C17.4703 11.2446 17.1925 11.9152 16.6981 12.4096C16.2037 12.904 15.5332 13.1818 14.8339 13.1818C14.1347 13.1818 13.4642 12.904 12.9698 12.4096C12.4753 11.9152 12.1976 11.2446 12.1976 10.5454C12.1976 9.84623 12.4753 9.17566 12.9698 8.68124C13.4642 8.18683 14.1347 7.90907 14.8339 7.90907C15.5332 7.90907 16.2037 8.18683 16.6981 8.68124C17.1925 9.17566 17.4703 9.84623 17.4703 10.5454Z" fill="white"/>
</svg>
