<svg width="31" height="30" viewBox="0 0 31 30" fill="none" xmlns="http://www.w3.org/2000/svg">
<path d="M21.4702 18.9658L24.7975 21.0103L23.7748 22.8953L19.4248 20.2273V14.8768H21.4702V18.9658ZM30.3339 19.2268C30.3339 24.8383 26.0657 29.3768 20.7884 29.3768C15.5111 29.3768 11.243 24.8383 11.243 19.2268C11.243 18.7338 11.2839 18.2553 11.352 17.7768H0.333862V0.37677H24.8793V10.0628C28.0975 11.7013 30.3339 15.1813 30.3339 19.2268ZM12.1702 14.8768C12.4157 14.3548 12.6748 13.8618 12.9884 13.3833C12.8657 13.4268 12.743 13.4268 12.6066 13.4268C10.343 13.4268 8.51568 11.4838 8.51568 9.07677C8.51568 6.66977 10.343 4.72677 12.6066 4.72677C14.8702 4.72677 16.6975 6.66977 16.6975 9.07677C16.6975 9.43927 16.643 9.80177 16.5611 10.1353C17.843 9.46827 19.2748 9.07677 20.7884 9.07677C21.252 9.07677 21.702 9.12027 22.152 9.19277V6.17677C21.4287 6.17677 20.735 5.87124 20.2236 5.32738C19.7121 4.78352 19.4248 4.0459 19.4248 3.27677H5.78841C5.78841 4.88627 4.57477 6.17677 3.06114 6.17677V11.9768C3.78445 11.9768 4.47815 12.2823 4.98961 12.8262C5.50107 13.37 5.78841 14.1076 5.78841 14.8768H12.1702ZM27.6066 19.2268C27.6066 15.2248 24.552 11.9768 20.7884 11.9768C17.0248 11.9768 13.9702 15.2248 13.9702 19.2268C13.9702 23.2288 17.0248 26.4768 20.7884 26.4768C24.552 26.4768 27.6066 23.2288 27.6066 19.2268Z" fill="#B3CBFB"/>
</svg>
