<svg width="54" height="54" viewBox="0 0 54 54" fill="none" xmlns="http://www.w3.org/2000/svg">
<rect x="0.333862" y="0.376709" width="53" height="53" rx="26.5" fill="#233657"/>
<path d="M32.9702 30.9657L36.2975 33.0102L35.2748 34.8952L30.9248 32.2272V26.8767H32.9702V30.9657ZM41.8339 31.2267C41.8339 36.8382 37.5657 41.3767 32.2884 41.3767C27.0111 41.3767 22.743 36.8382 22.743 31.2267C22.743 30.7337 22.7839 30.2552 22.852 29.7767H11.8339V12.3767H36.3793V22.0627C39.5975 23.7012 41.8339 27.1812 41.8339 31.2267ZM23.6702 26.8767C23.9157 26.3547 24.1748 25.8617 24.4884 25.3832C24.3657 25.4267 24.243 25.4267 24.1066 25.4267C21.843 25.4267 20.0157 23.4837 20.0157 21.0767C20.0157 18.6697 21.843 16.7267 24.1066 16.7267C26.3702 16.7267 28.1975 18.6697 28.1975 21.0767C28.1975 21.4392 28.143 21.8017 28.0611 22.1352C29.343 21.4682 30.7748 21.0767 32.2884 21.0767C32.752 21.0767 33.202 21.1202 33.652 21.1927V18.1767C32.9287 18.1767 32.235 17.8712 31.7236 17.3273C31.2121 16.7835 30.9248 16.0458 30.9248 15.2767H17.2884C17.2884 16.8862 16.0748 18.1767 14.5611 18.1767V23.9767C15.2845 23.9767 15.9781 24.2822 16.4896 24.8261C17.0011 25.37 17.2884 26.1076 17.2884 26.8767H23.6702ZM39.1066 31.2267C39.1066 27.2247 36.052 23.9767 32.2884 23.9767C28.5248 23.9767 25.4702 27.2247 25.4702 31.2267C25.4702 35.2287 28.5248 38.4767 32.2884 38.4767C36.052 38.4767 39.1066 35.2287 39.1066 31.2267Z" fill="white"/>
</svg>
