<svg width="53" height="53" viewBox="0 0 53 53" fill="none" xmlns="http://www.w3.org/2000/svg">
<rect x="0.333923" y="-0.000244141" width="52.33" height="53" rx="26.165" fill="#233657"/>
<path fill-rule="evenodd" clip-rule="evenodd" d="M26.4989 11.9998C18.491 11.9998 11.9989 18.4918 11.9989 26.4998C11.9989 34.5077 18.491 40.9998 26.4989 40.9998C34.5069 40.9998 40.9989 34.5077 40.9989 26.4998C40.9989 18.4918 34.5069 11.9998 26.4989 11.9998ZM14.6353 26.4998C14.6353 29.2548 15.5752 31.7909 17.1504 33.8051C18.2566 32.3523 19.6838 31.175 21.3204 30.3651C22.9569 29.5551 24.7586 29.1345 26.5846 29.1361C28.387 29.1344 30.166 29.5441 31.7861 30.3341C33.4061 31.124 34.8245 32.2733 35.9332 33.6944C37.0753 32.1964 37.8443 30.448 38.1766 28.5938C38.5088 26.7396 38.3948 24.833 37.8439 23.0316C37.2929 21.2302 36.321 19.586 35.0084 18.2348C33.6959 16.8837 32.0804 15.8645 30.2958 15.2616C28.5112 14.6587 26.6086 14.4895 24.7456 14.7679C22.8825 15.0463 21.1126 15.7643 19.5821 16.8626C18.0517 17.9609 16.8048 19.4078 15.9446 21.0836C15.0843 22.7594 14.6355 24.616 14.6353 26.4998ZM26.4989 38.3634C23.7755 38.3675 21.1343 37.4306 19.0222 35.7112C19.8723 34.4942 21.0039 33.5005 22.3205 32.8148C23.6372 32.129 25.1001 31.7714 26.5846 31.7725C28.0506 31.7713 29.4958 32.1199 30.8001 32.7894C32.1043 33.4588 33.2301 34.4297 34.0837 35.6216C31.9553 37.3968 29.2705 38.3673 26.4989 38.3634Z" fill="white"/>
<path d="M14.6353 26.4998C14.6353 29.2548 15.5752 31.7909 17.1504 33.8051C18.2566 32.3523 19.6838 31.175 21.3204 30.3651C22.9569 29.5551 24.7586 29.1345 26.5846 29.1361C28.387 29.1344 30.166 29.5441 31.7861 30.3341C33.4061 31.124 34.8245 32.2733 35.9332 33.6944C37.0753 32.1964 37.8443 30.448 38.1766 28.5938C38.5088 26.7396 38.3948 24.833 37.8439 23.0316C37.2929 21.2302 36.321 19.586 35.0084 18.2348C33.6959 16.8837 32.0804 15.8645 30.2958 15.2616C28.5112 14.6587 26.6086 14.4895 24.7456 14.7679C22.8825 15.0463 21.1126 15.7643 19.5821 16.8626C18.0517 17.9609 16.8048 19.4078 15.9446 21.0836C15.0843 22.7594 14.6355 24.616 14.6353 26.4998Z" fill="white"/>
<path d="M26.4989 38.3634C23.7755 38.3675 21.1343 37.4306 19.0222 35.7112C19.8723 34.4942 21.0039 33.5005 22.3205 32.8148C23.6372 32.129 25.1001 31.7714 26.5846 31.7725C28.0506 31.7713 29.4958 32.1199 30.8001 32.7894C32.1043 33.4588 33.2301 34.4297 34.0837 35.6216C31.9553 37.3968 29.2705 38.3673 26.4989 38.3634Z" fill="#233657"/>
<path fill-rule="evenodd" clip-rule="evenodd" d="M31.7717 22.5452C31.7717 23.9436 31.2162 25.2847 30.2273 26.2736C29.2385 27.2624 27.8974 27.8179 26.499 27.8179C25.1005 27.8179 23.7594 27.2624 22.7706 26.2736C21.7817 25.2847 21.2262 23.9436 21.2262 22.5452C21.2262 21.1468 21.7817 19.8056 22.7706 18.8168C23.7594 17.828 25.1005 17.2725 26.499 17.2725C27.8974 17.2725 29.2385 17.828 30.2273 18.8168C31.2162 19.8056 31.7717 21.1468 31.7717 22.5452ZM29.1353 22.5452C29.1353 23.2444 28.8576 23.915 28.3631 24.4094C27.8687 24.9038 27.1982 25.1816 26.499 25.1816C25.7997 25.1816 25.1292 24.9038 24.6348 24.4094C24.1403 23.915 23.8626 23.2444 23.8626 22.5452C23.8626 21.846 24.1403 21.1754 24.6348 20.681C25.1292 20.1866 25.7997 19.9088 26.499 19.9088C27.1982 19.9088 27.8687 20.1866 28.3631 20.681C28.8576 21.1754 29.1353 21.846 29.1353 22.5452Z" fill="#233657"/>
</svg>
