<svg width="53" height="54" viewBox="0 0 53 54" fill="none" xmlns="http://www.w3.org/2000/svg">
<rect y="0.376953" width="52.3339" height="53" rx="26.167" fill="#233657"/>
<path fill-rule="evenodd" clip-rule="evenodd" d="M27.9065 10.9739C27.4091 10.587 26.797 10.377 26.1668 10.377C25.5367 10.377 24.9245 10.587 24.4271 10.9739L12.5498 20.2106C11.4845 21.0422 12.071 22.7493 13.4211 22.7493H14.8335V34.0826C14.8335 34.834 15.132 35.5547 15.6633 36.0861C16.1947 36.6174 16.9154 36.9159 17.6668 36.9159H24.7501V26.9993C24.7501 26.6235 24.8994 26.2632 25.1651 25.9975C25.4308 25.7318 25.7911 25.5826 26.1668 25.5826C26.5425 25.5826 26.9029 25.7318 27.1685 25.9975C27.4342 26.2632 27.5835 26.6235 27.5835 26.9993V36.9159H34.6668C35.4183 36.9159 36.1389 36.6174 36.6703 36.0861C37.2016 35.5547 37.5001 34.834 37.5001 34.0826V22.7493H38.9126C40.2612 22.7493 40.8506 21.0422 39.7838 20.212L27.9065 10.9739Z" fill="white"/>
</svg>
