<svg width="54" height="54" viewBox="0 0 54 54" fill="none" xmlns="http://www.w3.org/2000/svg">
<rect x="0.333862" y="0.376801" width="53" height="53" rx="26.5" fill="#233657"/>
<path d="M37.9877 15.599H13.3723V12.3768H37.9877V15.599ZM31.3569 28.4879H28.7569V31.2107C27.7877 32.7412 27.2185 34.5618 27.2185 36.5435C27.2185 37.0912 27.28 37.6229 27.3569 38.1546H13.3723V28.4879H11.8339V25.2657L13.3723 17.2101H37.9877L39.5262 25.2657V27.4407C38.5569 27.0862 37.5262 26.8768 36.4492 26.8768C34.5569 26.8768 32.8185 27.4729 31.3569 28.4879ZM25.68 28.4879H16.4492V34.9324H25.68V28.4879ZM40.0492 31.4524L34.5262 37.2362L32.08 34.6746L30.2954 36.5435L34.5262 41.3768L41.8339 33.724L40.0492 31.4524Z" fill="white"/>
</svg>
