<svg width="31" height="29" viewBox="0 0 31 29" fill="none" xmlns="http://www.w3.org/2000/svg">
<path d="M26.4877 3.22222H1.87232V0H26.4877V3.22222ZM19.8569 16.1111H17.2569V18.8339C16.2877 20.3644 15.7185 22.185 15.7185 24.1667C15.7185 24.7144 15.78 25.2461 15.8569 25.7778H1.87232V16.1111H0.333862V12.8889L1.87232 4.83333H26.4877L28.0262 12.8889V15.0639C27.0569 14.7094 26.0262 14.5 24.9492 14.5C23.0569 14.5 21.3185 15.0961 19.8569 16.1111ZM14.18 16.1111H4.94925V22.5556H14.18V16.1111ZM28.5492 19.0756L23.0262 24.8594L20.58 22.2978L18.7954 24.1667L23.0262 29L30.3339 21.3472L28.5492 19.0756Z" fill="#B3CBFB"/>
</svg>
